<?xml version="1.0" encoding="utf-8"?>
<!-- Generator: Adobe Illustrator 18.1.1, SVG Export Plug-In . SVG Version: 6.00 Build 0)  -->
<!DOCTYPE svg PUBLIC "-//W3C//DTD SVG 1.1//EN" "http://www.w3.org/Graphics/SVG/1.1/DTD/svg11.dtd">
<svg version="1.1" xmlns="http://www.w3.org/2000/svg" xmlns:xlink="http://www.w3.org/1999/xlink" x="0px" y="0px"
	 viewBox="0 0 55.9 55.9" enable-background="new 0 0 55.9 55.9" xml:space="preserve">
<g id="Layer_1">
</g>
<g id="content">
	<g>
		<path fill="#FFFFFF" d="M39.3,12.5V9.8h-5.6v2.8H22.1V9.8h-5.6v2.8H10v33.3h35.9V12.5H39.3z M42.7,42.5H13.3V15.8h3.3v1.8h5.6
			v-1.8h11.6v1.8h5.6v-1.8h3.3V42.5z"/>
		<g>
			<rect x="25.2" y="27.7" fill="#FFFFFF" width="5.6" height="5.6"/>
		</g>
		<g>
			<rect x="25.2" y="19.8" fill="#FFFFFF" width="5.6" height="5.6"/>
		</g>
		<g>
			<rect x="25.2" y="35.2" fill="#FFFFFF" width="5.6" height="5.6"/>
		</g>
		<g>
			<rect x="33.7" y="35.2" fill="#FFFFFF" width="5.6" height="5.6"/>
		</g>
		<g>
			<rect x="16.5" y="35.2" fill="#FFFFFF" width="5.6" height="5.6"/>
		</g>
		<g>
			<rect x="33.8" y="27.7" fill="#FFFFFF" width="5.6" height="5.6"/>
		</g>
		<g>
			<rect x="16.5" y="27.7" fill="#FFFFFF" width="5.6" height="5.6"/>
		</g>
		<g>
			<rect x="33.7" y="19.8" fill="#FFFFFF" width="5.6" height="5.6"/>
		</g>
		<g>
			<rect x="16.5" y="19.8" fill="#FFFFFF" width="5.6" height="5.6"/>
		</g>
	</g>
</g>
</svg>
