<?xml version="1.0" encoding="utf-8"?>
<!-- Generator: Adobe Illustrator 18.1.1, SVG Export Plug-In . SVG Version: 6.00 Build 0)  -->
<!DOCTYPE svg PUBLIC "-//W3C//DTD SVG 1.1//EN" "http://www.w3.org/Graphics/SVG/1.1/DTD/svg11.dtd">
<svg version="1.1" xmlns="http://www.w3.org/2000/svg" xmlns:xlink="http://www.w3.org/1999/xlink" x="0px" y="0px"
	 viewBox="0 0 55.9 55.9" enable-background="new 0 0 55.9 55.9" xml:space="preserve">
<g id="Layer_1">
</g>
<g id="content">
	<g>
		<path fill="#FFFFFF" d="M52.8,34.4c0-4.3-2.2-8.1-5.5-10c1.9-1.4,3.2-3.7,3.2-6.3c0-4.3-3.5-7.8-7.8-7.8c-4,0-7.4,3.1-7.7,7
			c2.2,1.4,3.7,3.8,3.7,6.6c0,2.6-0.8,4.8-2.7,6.3c3.1,1.7,4.7,5.1,5,9.1h10.8C52.4,37.9,52.8,36.2,52.8,34.4z"/>
		<path fill="#FFFFFF" d="M19.7,30.2c-1.9-1.4-2.6-3.7-2.6-6.2c0-3.1,1.8-5.8,4.4-7c-0.2-4.1-3.6-7.4-7.8-7.4
			c-4.3,0-7.8,3.5-7.8,7.8c0,2.6,1.2,4.8,3.2,6.3c-3.3,1.9-5.5,5.6-5.5,10c0,1.8,0.4,3.5,1.1,5h10.2C15.3,34.9,16.9,31.8,19.7,30.2z
			"/>
		<path fill="#FFFFFF" d="M38,40.8c0,1.8-0.4,3.5-1.1,5H18.8c-0.7-1.5-1.1-3.2-1.1-5c0-0.6,0-1.1,0.1-1.7c0.5-3.6,2.6-6.7,5.4-8.3
			c-1.9-1.4-3.2-3.7-3.2-6.3c0-3.1,1.8-5.8,4.4-7c1-0.5,2.2-0.8,3.4-0.8c1.5,0,2.9,0.4,4.1,1.2c2.2,1.4,3.7,3.8,3.7,6.6
			c0,2.6-1.2,4.8-3.2,6.3c3.1,1.7,5.2,5.1,5.5,9.1C38,40.2,38,40.5,38,40.8z"/>
	</g>
</g>
</svg>
