<?xml version="1.0" encoding="utf-8"?>
<!-- Generator: Adobe Illustrator 18.1.1, SVG Export Plug-In . SVG Version: 6.00 Build 0)  -->
<!DOCTYPE svg PUBLIC "-//W3C//DTD SVG 1.1//EN" "http://www.w3.org/Graphics/SVG/1.1/DTD/svg11.dtd">
<svg version="1.1" xmlns="http://www.w3.org/2000/svg" xmlns:xlink="http://www.w3.org/1999/xlink" x="0px" y="0px"
	 viewBox="0 0 55.9 55.9" enable-background="new 0 0 55.9 55.9" xml:space="preserve">
<g id="Layer_1">
</g>
<g id="content">
	<g>
		<path fill="#FFFFFF" d="M42.1,26.8V46h-7V32.8H33V17.5c0-4.2,3.4-7.5,7.5-7.5h1.5L42.1,26.8L42.1,26.8z"/>
		<path fill="#FFFFFF" d="M28.3,16.8v6.2c0,2.2-3.3,3.9-3.3,3.9V46h-7V26.8c0,0-3.3-1.7-3.3-3.9v-6.2c0-2.5,1.3-4.7,3.3-5.8v9.1
			c0,0.5,0.4,0.9,0.9,0.9h0.5c0.5,0,0.9-0.4,0.9-0.9V10c0.4-0.1,0.8-0.1,1.1-0.1c0.4,0,0.8,0,1.1,0.1v10c0,0.5,0.4,0.9,0.9,0.9h0.5
			c0.5,0,0.9-0.4,0.9-0.9v-9.1c0.5,0.3,0.9,0.6,1.3,1C27.6,13.2,28.3,14.9,28.3,16.8z"/>
	</g>
</g>
</svg>
