<?xml version="1.0" encoding="utf-8"?>
<!-- Generator: Adobe Illustrator 18.1.1, SVG Export Plug-In . SVG Version: 6.00 Build 0)  -->
<!DOCTYPE svg PUBLIC "-//W3C//DTD SVG 1.1//EN" "http://www.w3.org/Graphics/SVG/1.1/DTD/svg11.dtd">
<svg version="1.1" id="Layer_1" xmlns="http://www.w3.org/2000/svg" xmlns:xlink="http://www.w3.org/1999/xlink" x="0px" y="0px"
	 viewBox="0 0 31.8 31.7" enable-background="new 0 0 31.8 31.7" xml:space="preserve">
<path fill="#5AE0C9" d="M31.8,0v31.7h-8.4c0,0,0-7.2,0-10.9c1.1,0,2.3,0,3.5,0c0-0.7,0-1.3,0-1.9c0-0.8,0-1.7,0-2.5
	c0-0.4-0.2-0.6-0.6-0.6c-1,0-1.9,0-3,0c0-0.5,0-1,0-1.5c0.1-0.5,0.5-0.7,1-0.7c0.8,0,1.7,0,2.5,0c0-1.7,0-3.4,0-5.2
	c-1.8,0.1-3.5,0-5.3,0.3c-2,0.3-3.3,2.2-3.3,4.2c0,0.9,0,1.8,0,2.9c-0.7,0-1.3,0-1.9,0c-0.2,0-0.5,0.3-0.5,0.4c0,1.5,0,3,0,4.6
	c0.8,0,1.5,0,2.3,0c0,3.7,0,11,0,11H0L0,0H31.8z"/>
</svg>
