<?xml version="1.0" encoding="utf-8"?>
<!-- Generator: Adobe Illustrator 18.1.1, SVG Export Plug-In . SVG Version: 6.00 Build 0)  -->
<!DOCTYPE svg PUBLIC "-//W3C//DTD SVG 1.1//EN" "http://www.w3.org/Graphics/SVG/1.1/DTD/svg11.dtd">
<svg version="1.1" xmlns="http://www.w3.org/2000/svg" xmlns:xlink="http://www.w3.org/1999/xlink" x="0px" y="0px"
	 viewBox="0 0 36 36" enable-background="new 0 0 36 36" xml:space="preserve">
<g id="Layer_1">
</g>
<g id="Website">
	<g>
		<path fill="#fff" d="M18,0C8.1,0,0,8.1,0,18C0,28,8.1,36,18,36c10,0,18-8.1,18-18C36,8.1,28,0,18,0z M18,32.2
			c-7.8,0-14.1-6.3-14.1-14.1c0-7.8,6.3-14.1,14.1-14.1S32.2,10.2,32.2,18C32.2,25.8,25.8,32.2,18,32.2z"/>
		<path fill="none" d="M32.2,18c0,7.8-6.3,14.1-14.1,14.1S3.9,25.8,3.9,18c0-7.8,6.3-14.1,14.1-14.1S32.2,10.2,32.2,18z"/>
		<g>
			<polygon fill="#fff" points="28.9,17.4 28.9,21.3 15.4,21.2 15.4,7.2 19.3,7.2 19.3,17.4 			"/>
		</g>
	</g>
</g>
</svg>
