<?xml version="1.0" encoding="utf-8"?>
<!-- Generator: Adobe Illustrator 18.1.1, SVG Export Plug-In . SVG Version: 6.00 Build 0)  -->
<!DOCTYPE svg PUBLIC "-//W3C//DTD SVG 1.1//EN" "http://www.w3.org/Graphics/SVG/1.1/DTD/svg11.dtd">
<svg version="1.1" id="Layer_1" xmlns="http://www.w3.org/2000/svg" xmlns:xlink="http://www.w3.org/1999/xlink" x="0px" y="0px"
	 viewBox="0 0 206 52.9" enable-background="new 0 0 206 52.9" xml:space="preserve">
<g>
	<g>
		<path fill="#F0633E" d="M1,20c0.7,1.9,1.5,3.4,2.5,4.5c1.6,1.9,3.7,2.9,6.1,2.9c1.3,0,2.5-0.4,3.4-1.3c1-0.8,1.4-2,1.4-3.5
			c0-1.4-0.5-2.5-1.5-3.5c-0.6-0.6-2-1.6-4-2.9L5.4,14c-1.1-0.7-1.9-1.4-2.6-2c-1.2-1.3-1.8-2.8-1.8-4.3c0-2.1,0.7-3.8,2.1-5.2
			c1.4-1.4,3.2-2.1,5.5-2.1c0.9,0,2.1,0.2,3.4,0.7c1.3,0.5,2.1,0.7,2.3,0.7c0.5,0,0.9-0.1,1.1-0.4s0.3-0.6,0.5-1h0.9l0.9,8.8h-1
			c-0.7-2.7-1.8-4.5-3.3-5.6C12,2.5,10.5,1.9,9,1.9c-1.1,0-2.1,0.3-3,1C5.2,3.6,4.8,4.5,4.8,5.7c0,1.1,0.3,2,1,2.7
			c0.6,0.8,1.7,1.6,3,2.4l3.6,2.3c2.3,1.4,3.9,2.7,4.8,3.9c0.9,1.2,1.4,2.6,1.4,4.2c0,2.2-0.8,4-2.5,5.5c-1.6,1.5-3.7,2.2-6.3,2.2
			c-1.3,0-2.6-0.2-4-0.7c-1.4-0.5-2.2-0.7-2.4-0.7c-0.5,0-0.8,0.1-1,0.4c-0.2,0.3-0.3,0.6-0.3,1H1.2L0,20H1z"/>
		<path fill="#F0633E" d="M27,9.5v13c0,0.9,0.1,1.7,0.4,2.2c0.5,1,1.4,1.5,2.8,1.5c0.9,0,1.8-0.3,2.7-0.9c0.5-0.3,1-0.8,1.5-1.4
			V12.8c0-1-0.2-1.7-0.6-2c-0.4-0.3-1.2-0.5-2.4-0.6V9.5h6.6v14.3c0,0.9,0.2,1.6,0.5,1.9c0.3,0.3,1,0.5,2.1,0.5v0.6
			c-0.7,0.2-1.3,0.4-1.6,0.5c-0.4,0.1-0.9,0.3-1.8,0.6c-0.4,0.1-1.1,0.4-2.3,0.9c-0.1,0-0.1,0-0.1-0.1c0-0.1,0-0.1,0-0.2V25
			c-0.9,1.1-1.8,1.9-2.5,2.4c-1.2,0.8-2.4,1.2-3.7,1.2c-1.2,0-2.3-0.4-3.3-1.3c-1.1-0.8-1.6-2.2-1.6-4.2V12.7c0-1.1-0.2-1.8-0.7-2.2
			c-0.3-0.2-0.9-0.4-1.9-0.5V9.5H27z"/>
		<path fill="#F0633E" d="M41.1,27.8c1.1-0.1,1.8-0.3,2.1-0.5c0.5-0.4,0.8-1.2,0.8-2.4V14.4c0-1-0.1-1.7-0.4-2
			C43.4,12.1,43,12,42.4,12c-0.3,0-0.5,0-0.6,0c-0.1,0-0.3,0.1-0.5,0.1v-0.7l1.5-0.5c0.5-0.2,1.4-0.5,2.6-1c1.2-0.5,1.8-0.7,1.9-0.7
			c0.1,0,0.1,0,0.1,0.1c0,0.1,0,0.2,0,0.4v2.7c1.3-1.2,2.5-2.1,3.5-2.5c1-0.5,2-0.7,3-0.7c1.4,0,2.5,0.5,3.3,1.4
			c0.4,0.5,0.8,1.2,1.1,2.1c1-1,1.9-1.8,2.6-2.3c1.3-0.8,2.6-1.3,3.9-1.3c2.2,0,3.6,0.9,4.4,2.7c0.4,1,0.6,2.6,0.6,4.7v8.4
			c0,1,0.2,1.6,0.6,2c0.4,0.3,1.2,0.6,2.3,0.7v0.5h-9.1v-0.6c1.2-0.1,1.9-0.3,2.3-0.7c0.4-0.4,0.6-1.1,0.6-2.2v-8.7
			c0-1.3-0.1-2.3-0.4-2.9c-0.5-1.1-1.5-1.7-2.9-1.7c-0.9,0-1.8,0.3-2.6,0.9c-0.5,0.3-1.1,0.9-1.8,1.6v10.4c0,1.1,0.2,1.9,0.6,2.5
			c0.4,0.6,1.2,0.9,2.4,0.9v0.5h-9.3v-0.5c1.3-0.2,2.1-0.5,2.5-0.9c0.4-0.5,0.5-1.6,0.5-3.4v-5.7c0-2.1-0.1-3.5-0.4-4.3
			c-0.4-1.3-1.4-2-2.8-2c-0.8,0-1.6,0.2-2.4,0.7c-0.8,0.5-1.5,1-2.1,1.8V25c0,1,0.2,1.7,0.5,2.1c0.4,0.4,1.1,0.6,2.3,0.6v0.5h-9.2
			V27.8z"/>
		<path fill="#F0633E" d="M72.6,27.8c1.1-0.1,1.8-0.3,2.1-0.5c0.5-0.4,0.8-1.2,0.8-2.4V14.4c0-1-0.1-1.7-0.4-2
			c-0.3-0.3-0.7-0.5-1.3-0.5c-0.3,0-0.5,0-0.6,0c-0.1,0-0.3,0.1-0.5,0.1v-0.7l1.5-0.5c0.5-0.2,1.4-0.5,2.6-1
			c1.2-0.5,1.8-0.7,1.9-0.7c0.1,0,0.1,0,0.1,0.1c0,0.1,0,0.2,0,0.4v2.7c1.3-1.2,2.5-2.1,3.5-2.5c1-0.5,2-0.7,3-0.7
			c1.4,0,2.5,0.5,3.3,1.4c0.4,0.5,0.8,1.2,1.1,2.1c1-1,1.9-1.8,2.6-2.3c1.3-0.8,2.6-1.3,3.9-1.3c2.2,0,3.6,0.9,4.4,2.7
			c0.4,1,0.6,2.6,0.6,4.7v8.4c0,1,0.2,1.6,0.6,2c0.4,0.3,1.2,0.6,2.3,0.7v0.5H95v-0.6c1.2-0.1,1.9-0.3,2.3-0.7
			c0.4-0.4,0.6-1.1,0.6-2.2v-8.7c0-1.3-0.1-2.3-0.4-2.9c-0.5-1.1-1.5-1.7-2.9-1.7c-0.9,0-1.8,0.3-2.6,0.9c-0.5,0.3-1.1,0.9-1.8,1.6
			v10.4c0,1.1,0.2,1.9,0.6,2.5c0.4,0.6,1.2,0.9,2.4,0.9v0.5h-9.3v-0.5c1.3-0.2,2.1-0.5,2.5-0.9c0.4-0.5,0.5-1.6,0.5-3.4v-5.7
			c0-2.1-0.1-3.5-0.4-4.3c-0.4-1.3-1.4-2-2.8-2c-0.8,0-1.6,0.2-2.4,0.7c-0.8,0.5-1.5,1-2.1,1.8V25c0,1,0.2,1.7,0.5,2.1
			c0.4,0.4,1.1,0.6,2.3,0.6v0.5h-9.2V27.8z"/>
		<path fill="#F0633E" d="M117.9,11.3c1.4,1.3,2.1,3.2,2.1,5.6h-12.9c0.1,3.1,0.8,5.4,2.1,6.8c1.3,1.4,2.8,2.1,4.6,2.1
			c1.4,0,2.6-0.4,3.6-1.1c1-0.7,1.9-1.8,2.7-3.2l0.7,0.2c-0.6,1.7-1.6,3.3-3.1,4.8c-1.5,1.5-3.4,2.2-5.6,2.2c-2.5,0-4.5-1-5.9-2.9
			c-1.4-1.9-2.1-4.1-2.1-6.6c0-2.7,0.8-5.1,2.4-7s3.7-3,6.3-3C114.8,9.3,116.5,9.9,117.9,11.3z M108.2,12.8
			c-0.4,0.7-0.7,1.6-0.9,2.8h8.6c-0.1-1.4-0.4-2.4-0.8-3c-0.7-1.2-1.8-1.8-3.3-1.8C110.2,10.8,109,11.5,108.2,12.8z"/>
		<path fill="#F0633E" d="M121.2,27.6c1.2-0.1,2.1-0.3,2.5-0.7c0.4-0.3,0.6-1,0.6-2.1v-9.1c0-1.3-0.1-2.3-0.4-2.9
			c-0.3-0.6-0.7-0.9-1.4-0.9c-0.1,0-0.3,0-0.5,0.1c-0.2,0-0.5,0.1-0.7,0.1v-0.7c0.8-0.3,1.6-0.5,2.4-0.8c0.8-0.3,1.4-0.5,1.7-0.6
			c0.7-0.3,1.4-0.5,2.1-0.9c0.1,0,0.2,0,0.2,0.1c0,0.1,0,0.2,0,0.4V13c0.9-1.2,1.7-2.1,2.5-2.8c0.8-0.7,1.6-1,2.5-1
			c0.7,0,1.3,0.2,1.7,0.6c0.4,0.4,0.7,0.9,0.7,1.6c0,0.6-0.2,1-0.5,1.4c-0.3,0.4-0.7,0.6-1.2,0.6c-0.5,0-1-0.2-1.6-0.7
			c-0.5-0.5-0.9-0.7-1.2-0.7c-0.5,0-1.1,0.4-1.7,1.1c-0.7,0.8-1,1.6-1,2.4v9.1c0,1.2,0.3,2,0.8,2.4c0.5,0.5,1.4,0.7,2.7,0.6v0.7h-10
			V27.6z"/>
		<path fill="#F0633E" d="M134.4,27.7c1.1-0.1,1.8-0.4,2.2-0.8c0.3-0.4,0.5-1.3,0.5-2.8V4.6c0-0.8-0.1-1.3-0.3-1.7
			c-0.2-0.4-0.7-0.5-1.4-0.5c-0.1,0-0.3,0-0.4,0c-0.1,0-0.3,0-0.5,0.1V1.8c0.6-0.2,1.3-0.4,2.2-0.6c0.9-0.2,1.5-0.4,1.8-0.5l1.9-0.6
			l0,0.1v12.5c0.9-1,1.6-1.7,2.3-2.1c1.2-0.8,2.5-1.2,3.9-1.2c2.2,0,3.7,0.9,4.5,2.8c0.4,1,0.7,2.3,0.7,3.8v8.3
			c0,1.4,0.2,2.4,0.5,2.8c0.3,0.4,1,0.7,2,0.9v0.6h-8.8v-0.6c1.2-0.2,1.9-0.4,2.3-0.8c0.3-0.4,0.5-1.3,0.5-2.8v-8.2
			c0-1.3-0.2-2.4-0.7-3.2c-0.4-0.8-1.3-1.2-2.5-1.2c-1.1,0-2.1,0.4-3.1,1.1c-1,0.8-1.5,1.3-1.5,1.5v10c0,1.5,0.2,2.5,0.5,2.8
			c0.4,0.4,1.1,0.6,2.3,0.8v0.6h-8.9V27.7z"/>
		<path fill="#F0633E" d="M158.4,19.4c1.2-0.8,3.7-1.9,7.4-3.3v-1.7c0-1.4-0.1-2.3-0.4-2.9c-0.5-0.9-1.4-1.4-2.9-1.4
			c-0.7,0-1.3,0.2-2,0.5c-0.6,0.4-0.9,0.9-0.9,1.5c0,0.2,0,0.4,0.1,0.8c0.1,0.4,0.1,0.6,0.1,0.7c0,0.8-0.3,1.3-0.8,1.6
			c-0.3,0.2-0.6,0.3-1,0.3c-0.6,0-1.1-0.2-1.4-0.6c-0.3-0.4-0.5-0.8-0.5-1.3c0-0.9,0.6-1.9,1.8-3s2.9-1.6,5.1-1.6
			c2.6,0,4.4,0.9,5.3,2.6c0.5,0.9,0.7,2.3,0.7,4.1v8.1c0,0.8,0.1,1.3,0.2,1.6c0.2,0.5,0.5,0.8,1.1,0.8c0.3,0,0.6,0,0.8-0.1
			c0.2-0.1,0.6-0.3,1.1-0.7v1.1c-0.4,0.5-0.9,1-1.4,1.3c-0.8,0.5-1.5,0.8-2.3,0.8c-0.9,0-1.6-0.3-2-0.9c-0.4-0.6-0.6-1.3-0.7-2.1
			c-1,0.9-1.9,1.6-2.6,2c-1.2,0.7-2.4,1.1-3.5,1.1c-1.2,0-2.2-0.4-3-1.2c-0.9-0.8-1.3-1.9-1.3-3.1C155.5,22.3,156.5,20.7,158.4,19.4
			z M165.9,17.1c-1.6,0.5-2.8,1.1-3.9,1.7c-1.9,1.2-2.9,2.6-2.9,4.1c0,1.2,0.4,2.1,1.2,2.7c0.5,0.4,1.1,0.6,1.8,0.6
			c0.9,0,1.7-0.2,2.6-0.8c0.8-0.5,1.2-1.1,1.2-1.9V17.1z"/>
		<path fill="#F0633E" d="M172.1,9.7h8.6v0.6c-0.7,0-1.2,0.1-1.5,0.2c-0.6,0.2-0.9,0.5-0.9,1.1c0,0.2,0,0.4,0.1,0.6
			c0.1,0.2,0.2,0.5,0.4,0.9l4.7,10.1l3.9-10.2c0-0.1,0.1-0.4,0.2-0.7s0.1-0.7,0.1-0.8c0-0.4-0.1-0.6-0.4-0.8
			c-0.2-0.2-0.6-0.3-0.9-0.3l-0.6,0V9.7h5.6v0.6c-0.6,0.1-1,0.3-1.2,0.6c-0.3,0.3-0.5,0.8-0.7,1.3l-6.4,16.9c-1.1,2.9-2.2,5-3.2,6.3
			c-1,1.3-2.3,2-3.9,2c-0.8,0-1.5-0.2-2.1-0.6c-0.7-0.4-1-1-1-1.8c0-0.5,0.2-1,0.6-1.3c0.4-0.3,0.9-0.5,1.5-0.5
			c0.3,0,0.9,0.1,1.6,0.4c0.7,0.3,1.2,0.4,1.5,0.4c0.7,0,1.5-0.9,2.4-2.8c0.8-1.8,1.2-3,1.2-3.6c0-0.1,0-0.3-0.1-0.4
			c0-0.2-0.1-0.3-0.1-0.5l-6.4-13.8c-0.5-1-0.9-1.7-1.2-2c-0.3-0.3-0.9-0.5-1.5-0.6V9.7z"/>
		<path fill="#F0633E" d="M193.7,21.9h0.7c0.3,1.5,0.7,2.7,1.3,3.5c0.9,1.5,2.3,2.3,4.1,2.3c1,0,1.8-0.3,2.4-0.8
			c0.6-0.6,0.9-1.3,0.9-2.2c0-0.6-0.2-1.1-0.5-1.6c-0.3-0.5-0.9-1-1.8-1.5l-2.3-1.3c-1.7-0.9-2.9-1.8-3.7-2.7
			c-0.8-0.9-1.2-2-1.2-3.2c0-1.5,0.5-2.8,1.6-3.7c1.1-1,2.4-1.5,4.1-1.5c0.7,0,1.5,0.1,2.4,0.4c0.9,0.3,1.3,0.4,1.4,0.4
			c0.2,0,0.4,0,0.5-0.1c0.1-0.1,0.2-0.2,0.3-0.3h0.5l0.1,5.7h-0.6c-0.3-1.3-0.6-2.3-1.1-3.1c-0.8-1.4-2-2-3.6-2
			c-0.9,0-1.7,0.3-2.2,0.9s-0.8,1.3-0.8,2c0,1.2,0.9,2.4,2.8,3.3l2.7,1.4c2.9,1.6,4.3,3.4,4.3,5.5c0,1.6-0.6,2.9-1.8,3.9
			c-1.2,1-2.8,1.5-4.7,1.5c-0.8,0-1.7-0.1-2.8-0.4c-1-0.3-1.6-0.4-1.8-0.4c-0.2,0-0.3,0.1-0.4,0.2c-0.1,0.1-0.2,0.3-0.3,0.4h-0.5
			V21.9z"/>
	</g>
	<g>
		<path fill="#F0633E" d="M138.9,34.9c1.8,0.9,2.8,2.6,3.2,4.9h-2.4c-0.3-1.3-0.9-2.3-1.8-2.9c-0.9-0.6-2-0.9-3.4-0.9
			c-1.6,0-3,0.6-4.1,1.9c-1.1,1.3-1.7,3.1-1.7,5.6c0,2.1,0.5,3.9,1.4,5.2c0.9,1.3,2.4,2,4.5,2c1.6,0,2.9-0.5,4-1.4
			c1-0.9,1.6-2.5,1.6-4.6h-5.6v-2h7.9v9.7h-1.6l-0.6-2.3c-0.8,0.9-1.5,1.5-2.2,1.9c-1.1,0.6-2.4,0.9-4,0.9c-2.1,0-3.9-0.7-5.4-2.1
			c-1.6-1.7-2.5-4.1-2.5-7.1c0-3,0.8-5.4,2.4-7.2c1.5-1.7,3.5-2.6,6-2.6C136.2,33.9,137.7,34.3,138.9,34.9z"/>
		<path fill="#F0633E" d="M146.2,39.3h2.1v2.3c0.2-0.4,0.6-1,1.3-1.6c0.7-0.6,1.4-1,2.3-1c0,0,0.1,0,0.2,0c0.1,0,0.3,0,0.5,0v2.3
			c-0.1,0-0.3,0-0.4,0c-0.1,0-0.2,0-0.4,0c-1.1,0-2,0.4-2.6,1.1c-0.6,0.7-0.9,1.5-0.9,2.5v7.6h-2.2V39.3z"/>
		<path fill="#F0633E" d="M154.5,34.4h2.2v2.5h-2.2V34.4z M154.5,39.3h2.2v13.1h-2.2V39.3z"/>
		<path fill="#F0633E" d="M160.2,34.4h2.2v18h-2.2V34.4z"/>
		<path fill="#F0633E" d="M165.7,34.4h2.2v18h-2.2V34.4z"/>
	</g>
</g>
<g>
</g>
<g>
</g>
<g>
</g>
<g>
</g>
<g>
</g>
<g>
</g>
</svg>
