<?xml version="1.0" encoding="utf-8"?>
<!-- Generator: Adobe Illustrator 18.1.1, SVG Export Plug-In . SVG Version: 6.00 Build 0)  -->
<!DOCTYPE svg PUBLIC "-//W3C//DTD SVG 1.1//EN" "http://www.w3.org/Graphics/SVG/1.1/DTD/svg11.dtd">
<svg version="1.1" xmlns="http://www.w3.org/2000/svg" xmlns:xlink="http://www.w3.org/1999/xlink" x="0px" y="0px"
	 viewBox="0 0 49.5 43.6" enable-background="new 0 0 49.5 43.6" xml:space="preserve">
<g id="Layer_1">
</g>
<g id="content">
	<path fill="#FFFFFF" d="M32.7,16.1v-3.4h3.2l1.8,3.1h9.6l0-3.1l-5.2-4.1H7.4l-5.2,4.1l0,3.1h9.2l1.5-3.1H17v3.4h-2.4L9.5,29.8V35
		H40v-5.2l-5.1-13.8H32.7z M20.2,12.7h9.4v3.4h-9.4V12.7z M24.7,31c-3.4,0-6.2-2.4-6.2-5.5c0-3,2.8-5.5,6.2-5.5
		c3.4,0,6.2,2.5,6.2,5.5C30.9,28.6,28.2,31,24.7,31z"/>
</g>
</svg>
