<?xml version="1.0" encoding="utf-8"?>
<!-- Generator: Adobe Illustrator 18.1.1, SVG Export Plug-In . SVG Version: 6.00 Build 0)  -->
<!DOCTYPE svg PUBLIC "-//W3C//DTD SVG 1.1//EN" "http://www.w3.org/Graphics/SVG/1.1/DTD/svg11.dtd">
<svg version="1.1" id="Layer_1" xmlns="http://www.w3.org/2000/svg" xmlns:xlink="http://www.w3.org/1999/xlink" x="0px" y="0px"
	 viewBox="0 0 31.8 31.8" enable-background="new 0 0 31.8 31.8" xml:space="preserve">
<path fill="#5AE0C9" d="M0,0v31.8h31.8V0H0z M23.2,12.4c0,0-0.4,5.1-2.6,7.4c-2.2,2.2-4.6,3.7-7.8,3.6s-5.5-1.5-5.5-1.5
	s3.3,0.4,5.1-1.7c0,0-2.1,0-3.3-2.4c0,0,0.8,0.3,1.4,0c0,0-2.5-1-2.7-3.6c0,0,0.5,0.4,1.3,0.3c0,0-1.8-3-0.8-4.8
	c0,0,3.1,3.9,7.5,3.6c0,0-0.7-2.8,1.8-4.1C20.1,8,22.1,10,22.1,10s1.8-0.5,2.1-0.7c0,0-0.4,1.5-1.3,1.8l1.8-0.3
	C24.7,10.7,24,12.2,23.2,12.4z"/>
</svg>
